<svg xmlns="http://www.w3.org/2000/svg" width="29" height="20.78" viewBox="0 0 29 20.78">
    <defs>
        <style>
            .a { stroke: #000; stroke-miterlimit: 10; }
        </style>
    </defs>
    <title>
        Cart
    </title>
    <path d="M28,6.28H24c0-1-.05-.41-.12-.47l-5-5.13a.51.51,0,0,0-.71-.06.81.81,0,0,0,0,.92l4.53,4.74H6.82l4.52-4.77a.65.65,0,0,0,0-.83.51.51,0,0,0-.71-.06l-5,5.22c-.06.06-.1-.56-.12.44H1a.5.5,0,0,0-.5.5.5.5,0,0,0,.5.5H2.87L5.5,19.89a.49.49,0,0,0,.49.39h17.5a.49.49,0,0,0,.49-.4L26.4,7.28H28a.5.5,0,0,0,.5-.5A.5.5,0,0,0,28,6.28Zm-4.92,13H6.39L3.9,7.28H25.38Z" class="a"/>
</svg>
