<svg xmlns="http://www.w3.org/2000/svg" width="28.58" height="28.7" viewBox="0 0 28.58 28.7">
    <defs>
        <style>
            .a { stroke: #000; stroke-miterlimit: 10; stroke-width: 0.75px; }
        </style>
    </defs>
    <title>
        search
    </title>
    <path d="M27.66,25l-8-8A10.68,10.68,0,0,0,18.45,3.49a10.57,10.57,0,0,0-15,0,10.65,10.65,0,0,0,0,15,10.53,10.53,0,0,0,13.46,1.26l8,8a1.86,1.86,0,0,0,1.32.55,1.9,1.9,0,0,0,1.33-.55l.1-.1A1.89,1.89,0,0,0,27.66,25ZM4.18,17.81a9.67,9.67,0,0,1,0-13.62,9.58,9.58,0,0,1,13.56,0,9.67,9.67,0,0,1,.08,13.53l-.17.17a9.55,9.55,0,0,1-13.47-.08ZM27,27l-.1.1a.9.9,0,0,1-1.24,0l-7.85-7.88.6-.6.08-.08.08-.08.58-.58L27,25.73A.88.88,0,0,1,27,27Z" class="a"/>
</svg>
