<svg xmlns="http://www.w3.org/2000/svg" width="27.84" height="28.89" viewBox="0 0 27.84 28.89">
    <defs>
        <style>
            .a { stroke: #000; stroke-miterlimit: 10; stroke-width: 0.5px; }
        </style>
    </defs>
    <title>
        icon
    </title>
    <g>
        <path d="M13.81,21.77c-5.27,0-10-6.53-10-8V8.89a.5.5,0,0,1,.5-.5.51.51,0,0,1,.5.5v4.88c0,1,4.31,7,9,7s9-6,9-7V8.89a.5.5,0,0,1,.5-.5.51.51,0,0,1,.5.5v4.88C23.81,15.24,19.07,21.77,13.81,21.77Z" class="a"/>
        <path d="M27.09,28.64a.5.5,0,0,1-.5-.5c0-4.62-2.28-8.25-5.18-8.25h-2.6a.5.5,0,0,1-.5-.5.5.5,0,0,1,.5-.5h2.6c3.52,0,6.18,4,6.18,9.25A.5.5,0,0,1,27.09,28.64Z" class="a"/>
        <path d="M.75,28.64a.5.5,0,0,1-.5-.5c0-5.27,2.56-9.25,6-9.25h2.6a.51.51,0,0,1,.5.5.5.5,0,0,1-.5.5H6.21c-2.78,0-5,3.63-5,8.25A.5.5,0,0,1,.75,28.64Z" class="a"/>
        <path d="M6.54,11.77a.51.51,0,0,1-.35-.15C3.12,8.55,4,6.88,4.51,5.77A2.07,2.07,0,0,0,4.79,5c0-1.58,2-4.25,9.25-4.25a21.69,21.69,0,0,1,4,.33,3.45,3.45,0,0,1,2.2-.85A2.35,2.35,0,0,1,21.9.91a.53.53,0,0,1,.11.55.5.5,0,0,1-.47.31.65.65,0,0,0-.6.28c1.73.9,2.35,2.1,2.35,3a3.55,3.55,0,0,0,.31,1,3.52,3.52,0,0,1,.31,2.85,3.38,3.38,0,0,1-2.21,1.64.41.41,0,0,1-.16,0,6.53,6.53,0,0,1-5.07-3C14.18,10.84,7.48,11.77,6.54,11.77Zm7.5-10C7.28,1.77,5.79,4.11,5.79,5a2.68,2.68,0,0,1-.38,1.2c-.49,1-1,2.09,1.34,4.54,1.73-.1,8.24-1.41,9.32-4.65a.51.51,0,0,1,.55-.34.5.5,0,0,1,.42.5c0,.87,2.14,3.19,4.42,3.25A2.44,2.44,0,0,0,23,8.43a2.73,2.73,0,0,0-.32-2A3.87,3.87,0,0,1,22.29,5c0-.59-.57-1.54-2.18-2.26a.48.48,0,0,1-.28-.54,1.78,1.78,0,0,1,.47-1A2.36,2.36,0,0,0,18.56,2a.5.5,0,0,1-.48.15A20.21,20.21,0,0,0,14,1.77Z" class="a"/>
        <path d="M21.31,14.89h-5a.5.5,0,0,1-.5-.5v-4a.5.5,0,0,1,.5-.5h5a.51.51,0,0,1,.5.5v4A.5.5,0,0,1,21.31,14.89Zm-4.5-1h4v-3h-4Z" class="a"/>
        <path d="M12.31,14.89h-5a.5.5,0,0,1-.5-.5v-2.5a.5.5,0,0,1,.5-.5.51.51,0,0,1,.5.5v2h4v-3h-1a.5.5,0,0,1-.5-.5.5.5,0,0,1,.5-.5h1.5a.51.51,0,0,1,.5.5v4A.5.5,0,0,1,12.31,14.89Z" class="a"/>
        <path d="M15.81,12.89h-3a.5.5,0,0,1-.5-.5.5.5,0,0,1,.5-.5h3a.51.51,0,0,1,.5.5A.5.5,0,0,1,15.81,12.89Z" class="a"/>
    </g>
</svg>
